<?xml version="1.0" standalone="no"?><!DOCTYPE svg PUBLIC "-//W3C//DTD SVG 1.1//EN" "http://www.w3.org/Graphics/SVG/1.1/DTD/svg11.dtd"><svg t="1622436870512" class="icon" viewBox="0 0 1024 1024" version="1.1" xmlns="http://www.w3.org/2000/svg" p-id="2210" xmlns:xlink="http://www.w3.org/1999/xlink" width="200" height="200"><defs><style type="text/css"></style></defs><path d="M952.832 911.872s-25.6 45.056-84.992 45.056h-716.8c-33.28 0-61.44-17.92-77.312-45.056 0 0-12.288-12.8-12.288-45.056V844.8h1.536c11.776-135.68 131.072-248.832 294.4-293.376C287.232 502.784 240.64 421.888 240.64 329.728c0-148.48 120.32-268.8 268.8-268.8S778.24 181.248 778.24 329.728c0 92.16-46.592 173.056-117.248 221.696 163.328 44.032 282.624 157.696 294.4 293.376h1.536v22.528c0 14.848-1.536 29.696-4.096 44.544z" fill="#73b6ff" p-id="2211"></path></svg>