<?xml version="1.0" standalone="no"?><!DOCTYPE svg PUBLIC "-//W3C//DTD SVG 1.1//EN" "http://www.w3.org/Graphics/SVG/1.1/DTD/svg11.dtd"><svg t="1622436416954" class="icon" viewBox="0 0 1024 1024" version="1.1" xmlns="http://www.w3.org/2000/svg" p-id="24750" xmlns:xlink="http://www.w3.org/1999/xlink" width="200" height="200"><defs><style type="text/css"></style></defs><path d="M313.38 927H81c-1.1 0-2-0.9-2-2V99c0-1.1 0.9-2 2-2h232.38c1.1 0 2 0.9 2 2v826c0 1.1-0.9 2-2 2z" fill="#A4D4FF" p-id="24751"></path><path d="M118.4 237.13h157.59v59.29H118.4z" fill="#FFFFFF" p-id="24752"></path><path d="M614.81 927H382.43c-1.1 0-2-0.9-2-2V99c0-1.1 0.9-2 2-2h232.38c1.1 0 2 0.9 2 2v826c0 1.1-0.9 2-2 2z" fill="#A4D4FF" p-id="24753"></path><path d="M419.82 237.13h157.59v59.29H419.82z" fill="#FFFFFF" p-id="24754"></path><path d="M912.56 927H750.33c-17.84 0-32.44-16.98-32.44-37.73l-48.67-754.55c0-20.75 14.6-37.73 32.44-37.73h162.22c17.84 0 32.44 16.98 32.44 37.73L945 889.27c0 20.75-14.6 37.73-32.44 37.73z" fill="#73B6FF" p-id="24755"></path></svg>