<?xml version="1.0" standalone="no"?><!DOCTYPE svg PUBLIC "-//W3C//DTD SVG 1.1//EN" "http://www.w3.org/Graphics/SVG/1.1/DTD/svg11.dtd"><svg t="1622436913711" class="icon" viewBox="0 0 1024 1024" version="1.1" xmlns="http://www.w3.org/2000/svg" p-id="3105" xmlns:xlink="http://www.w3.org/1999/xlink" width="200" height="200"><defs><style type="text/css"></style></defs><path d="M943.69336889 123.4944c-14.79907555-1.68163555-129.93308445-14.39288889-229.52846222-14.39288889-86.29816889 0-144.15303111 18.03946667-165.49774222 29.03722667-6.34766222 2.90019555-22.78513778 11.05692445-37.53187556 23.80458667-14.74218667-12.7488-31.17852445-20.89984-37.52846222-23.80458667-21.34357333-10.99776-79.20071111-29.03722667-165.50115556-29.03722667-99.59310222 0-214.73052445 12.71239111-229.52618666 14.39288889C36.97664 124.42168889 3.41333333 158.55388445 3.41333333 200.37973333v622.60337778c0 41.98627555 33.81816889 76.21745778 75.64629334 76.89102222 0.33450667 0.01137778 0.67697778 0.02048 1.01603555 0.02048 1.27544889 0 2.59072-0.08192 3.93329778-0.25486222 11.10698667-1.41880889 69.82087111-8.71992889 135.10542222-13.25511111 114.91328-7.98833778 158.73592889-1.18442667 174.62613333 3.57944889 0.06485333 0.02048 0.13084445 0.03754667 0.19797334 0.05461333 0.28785778 0.08305778 0.57799111 0.16497778 0.8704 0.23893333 0.19342222 0.04778667 0.38912 0.09671111 0.58140444 0.14222223 0.22186667 0.05233778 0.44714667 0.10012445 0.67242667 0.14563555 0.26624 0.05575111 0.53475555 0.10695111 0.80327111 0.15246222l0.24234667 0.0512c7.51388445 1.25041778 18.73806222 4.94933333 30.62101333 8.87011556 24.04238222 7.92576 53.96366222 17.78688 83.40821334 17.78688 24.79900445 0 52.18190222-7.84725333 78.67050666-15.43850666 18.60949333-5.33617778 37.85614222-10.84871111 48.37944889-10.84871112 3.43267555 0 6.71288889-0.63601778 9.74051555-1.792 132.59093333-18.6368 287.42087111 9.79171555 288.98304 10.08526222l2.50311112 0.4664889h2.54407111c42.40042667 0 76.90126222-34.49856 76.90126222-76.9024V200.37973333c-0.00455111-41.82584889-33.56330667-75.96032-75.16615111-76.88533333zM418.96504889 853.92384c-79.23825778-22.58488889-306.33073778 2.28579555-353.28796444 8.22044445-11.87271111-0.73159111-21.30602667-10.62115555-21.30602667-5.24174223V199.64814222c0-29.96110222 25.88216889-40.15672889 38.40910222-40.15672889h1.62702222l1.61336889-0.18432c1.25383111-0.14677333 126.72682667-14.56583111 230.53198222-14.56583111 77.25624889 0 128.13425778 15.47605333 144.40903112 23.72380445l0.52451555 0.29696 1.06268445 0.47331555c15.31790222 6.94840889 32.05688889 19.57319111 34.26190222 25.77521778V872.30008889c0 1.45635555 0.10808889 2.88768 0.32085333 4.28487111-13.52817778-3.05720889-27.37493333-7.60945778-40.22385778-11.84312889-13.57937778-4.47829333-26.43057778-8.69376-37.94261333-10.81799111z m556.31075556-13.57937778c0 11.84199111-9.11018667 21.59843555-20.68707556 22.62926223-24.67953778-4.38272-180.25585778-30.13632-317.98499556-9.2626489-1.07861333 0.16270222-2.13105778 0.38912-3.15392 0.66901334-17.12810667 1.35509333-36.94478222 7.03374222-57.77180444 12.99911111-12.18218667 3.49070222-25.24615111 7.22830222-37.45564444 9.91573333a28.21688889 28.21688889 0 0 0 0.3015111-4.11306666v-677.29635556c2.20728889-6.20316445 18.94855111-18.82794667 34.20501334-25.74791111l0.67242666-0.26510222 0.95232-0.52565333c16.25429333-8.24775111 67.14595555-23.73176889 144.43178667-23.7317689 103.80515555 0 229.27928889 14.41905778 230.53312 14.56469334l1.61336889 0.18545778h1.62816c12.52693333 0 22.71687111 10.19448889 22.71687111 22.72142222v657.25895111h-0.00113777v-0.00113778z" fill="#73b6ff" p-id="3106"></path><path d="M381.14645333 601.51808c-1.92170667-0.86357333-47.55000889-21.09553778-89.40999111-21.09553778-61.74264889 0-85.16380445 6.37496889-107.81468444 12.54513778-3.49866667 0.95118222-6.80391111 1.85116445-10.29233778 2.73749333-9.28540445 2.36885333-14.89464889 11.81354667-12.52920889 21.09895112 2.36657778 9.28654222 11.81013333 14.8992 21.09667556 12.53148444 3.76376889-0.96028445 7.35914667-1.93991111 10.84188444-2.88654222 21.39136-5.82200889 41.59829333-11.32430222 98.69767111-11.32430222 34.34040889 0 74.82481778 17.88586667 75.21848889 18.06222222a17.30332445 17.30332445 0 0 0 7.08721778 1.52120888c6.62755555 0 12.95815111-3.81724445 15.84128-10.25820444 3.92078222-8.74951111 0.00796445-19.01226667-8.73699556-22.93191111zM381.14645333 371.96003555c-1.92170667-0.86016-47.55000889-21.09553778-89.40999111-21.09553777-61.74264889 0-85.16380445 6.37724445-107.81468444 12.544-3.49866667 0.95573333-6.80391111 1.85344-10.29233778 2.73976889-9.28540445 2.36771555-14.89464889 11.81240889-12.52920889 21.09781333 2.36657778 9.28540445 11.81013333 14.8992 21.09667556 12.53034667 3.76376889-0.95800889 7.35914667-1.93877333 10.84188444-2.88312889 21.39136-5.82428445 41.59829333-11.32657778 98.69767111-11.32657778 34.34040889 0 74.82481778 17.88359111 75.21848889 18.06108445a17.33859555 17.33859555 0 0 0 7.08721778 1.5200711c6.62755555 0 12.95815111-3.82179555 15.84128-10.26161777 3.92078222-8.74154667 0.00796445-19.01112889-8.73699556-22.92622223zM854.30499555 601.51808c-1.92398222-0.86357333-47.55000889-21.09553778-89.4099911-21.09553778-61.74264889 0-85.16380445 6.37496889-107.81354667 12.54513778-3.50094222 0.95118222-6.80391111 1.85116445-10.29233778 2.73749333-9.28540445 2.36885333-14.89351111 11.81354667-12.52920889 21.09895112 2.36657778 9.28654222 11.81013333 14.8992 21.09667556 12.53148444 3.76376889-0.96028445 7.35914667-1.93991111 10.84074666-2.88654222 21.39022222-5.82200889 41.59943111-11.32430222 98.69880889-11.32430222 34.34040889 0 74.82595555 17.88586667 75.21848889 18.06222222a17.30332445 17.30332445 0 0 0 7.08721778 1.52120888c6.62755555 0 12.95815111-3.81724445 15.84241778-10.25820444 3.91623111-8.74951111 0.00455111-19.01226667-8.73927112-22.93191111zM854.30499555 371.96003555c-1.92398222-0.86016-47.55000889-21.09553778-89.4099911-21.09553777-61.74264889 0-85.16380445 6.37724445-107.81354667 12.544-3.50094222 0.95573333-6.80391111 1.85344-10.29233778 2.73976889-9.28540445 2.36771555-14.89351111 11.81240889-12.52920889 21.09781333 2.36657778 9.28540445 11.81013333 14.8992 21.09667556 12.53034667 3.76376889-0.95800889 7.35914667-1.93877333 10.84074666-2.88312889 21.39022222-5.82428445 41.59943111-11.32657778 98.69880889-11.32657778 34.34040889 0 74.82595555 17.88359111 75.21848889 18.06108445a17.33859555 17.33859555 0 0 0 7.08721778 1.5200711c6.62755555 0 12.95815111-3.82179555 15.84241778-10.26161777 3.91623111-8.74154667 0.00455111-19.01112889-8.73927112-22.92622223z" fill="#73b6ff" p-id="3107"></path></svg>