<?xml version="1.0" standalone="no"?><!DOCTYPE svg PUBLIC "-//W3C//DTD SVG 1.1//EN" "http://www.w3.org/Graphics/SVG/1.1/DTD/svg11.dtd"><svg t="1622436503708" class="icon" viewBox="0 0 1073 1024" version="1.1" xmlns="http://www.w3.org/2000/svg" p-id="29796" xmlns:xlink="http://www.w3.org/1999/xlink" width="209.5703125" height="200"><defs><style type="text/css"></style></defs><path d="M226.73118 193.090155H45.355161A46.920908 46.920908 0 0 0 0.021884 241.405602v723.594628a46.920908 46.920908 0 0 0 45.333277 48.272539h181.376019a46.920908 46.920908 0 0 0 45.333277-48.272539V241.191058A46.727817 46.727817 0 0 0 226.73118 193.090155z m-45.333278 132.695845H90.709893a24.179178 24.179178 0 0 1 0-48.272539h90.688009A23.321 23.321 0 0 1 204.053814 301.649731a23.599908 23.599908 0 0 1-22.655912 24.136269z m649.276373-142.114354L658.673856 230.485281a47.006725 47.006725 0 0 0-30.658426 58.356136L813.14598 987.677596a45.934002 45.934002 0 0 0 55.416874 34.842046l171.914602-46.813635a47.006725 47.006725 0 0 0 30.658425-58.356136L886.09115 218.535146a46.127093 46.127093 0 0 0-55.416875-34.8635z m-8.94651 139.818727l-86.0753 23.299545a23.12791 23.12791 0 0 1-27.719165-17.421023 23.599908 23.599908 0 0 1 15.318486-29.178068l86.0753-23.299545a23.12791 23.12791 0 0 1 27.719164 17.421023 23.599908 23.599908 0 0 1-15.318485 29.178068zM547.711381 0h-181.376019a46.920908 46.920908 0 0 0-45.333278 48.272539v916.513147a46.920908 46.920908 0 0 0 45.333278 48.272539h181.376019a46.920908 46.920908 0 0 0 45.333277-48.272539V48.272539A46.792181 46.792181 0 0 0 547.711381 0z m-45.333278 132.674391h-90.709464a24.179178 24.179178 0 0 1 0-48.272539h90.68801a24.179178 24.179178 0 0 1 0 48.272539z" fill="#8a8a8a" p-id="29797"></path></svg>