<?xml version="1.0" standalone="no"?><!DOCTYPE svg PUBLIC "-//W3C//DTD SVG 1.1//EN" "http://www.w3.org/Graphics/SVG/1.1/DTD/svg11.dtd"><svg t="1622437001253" class="icon" viewBox="0 0 1024 1024" version="1.1" xmlns="http://www.w3.org/2000/svg" p-id="9349" xmlns:xlink="http://www.w3.org/1999/xlink" width="200" height="200"><defs><style type="text/css"></style></defs><path d="M766.7 257.3c-3.7-27.4-10.6-54.4-17.1-81.2l-29.9-19.4c-61.1-35.9-132.4-56.5-208.4-56.5-65.4 0-127.2 15.2-182.1 42.3L189 255.5c19 75.2 58.2 169.9 130.3 206.6 28 14.3 56.7 22.8 80.6 44.7 24.8 22.8 42.9 53.1 49.6 86.3 5.3 26.1 17.4 53.9 48.9 50.7 13.1-1.3 25.2-7.6 36.4-14.4 34-20.6 63.8-47.4 92.7-74.8 39.1-37 77.3-75.4 110.1-118.1 18.2-23.7 36-51.2 39-81.8 3.1-32.1-5.5-65.6-9.9-97.4zM562.8 773.5c-13.2-9.1-43.6-28.3-61.2-22.1-2.3 0.8-4.3 2-6.1 3.7-11.1 10.7-13.5 40.4-16.5 54.6-3.5 16-5.6 32.5-9.8 48.4-5.5 21-13.3 41.5-23 60.9 21.3 3.4 43.1 5.2 65.3 5.2 53 0 103.6-10 150.2-28.2-11.1-19.9-23.1-39.2-36.4-57.8-17.5-24.3-37.8-47.6-62.5-64.7z" fill="#73b6ff" p-id="9350"></path><path d="M1013.2 347c-12.7-40.2-46.9-63.2-73.3-75.5-28.3-13.1-63.9-21.8-105.9-25.9-8.4-10.2-17.3-20-26.7-29.4-38.4-38.4-83.2-68.6-133-89.7-51.6-21.8-106.4-32.9-162.9-32.9s-111.3 11.1-162.9 32.9c-49.8 21.1-94.6 51.3-133 89.7-38.4 38.4-68.6 83.2-89.7 133-18 42.5-28.6 87.2-31.9 133.1-91.2 80.5-96 143.3-83.7 182.2 13.2 41.8 49.7 65.3 77.9 77.5 24.8 10.8 54.7 18.3 89.3 22.6 11.6 15.3 24.3 29.9 38 43.6 38.4 38.4 83.2 68.6 133 89.7 51.6 21.8 106.4 32.9 162.9 32.9s111.3-11.1 162.9-32.9c49.8-21.1 94.6-51.3 133-89.7s68.6-83.2 89.7-133c19.7-46.5 30.6-95.5 32.6-146.1 28-24.7 49.7-49.5 64.5-73.8 16.1-26.3 32.4-66.4 19.2-108.3z m-746.9-79.8c65.5-65.5 152.5-101.5 245-101.5 92.6 0 179.6 36 245 101.5 10.8 10.8 20.7 22.1 29.8 34 0.4 0.5 0.8 1.1 1.2 1.6 42.3 55.5 66.7 122.1 70 192.5-74.6 57.6-181.9 110.2-302.2 148.3-109.3 34.6-216.6 53.1-306 53.1-9.5 0-18.7-0.2-27.8-0.6-1.4-0.1-2.8-0.1-4.2-0.2-34.2-54.5-52.5-117.7-52.5-183.6 0.2-92.6 36.2-179.7 101.7-245.1zM78.8 642.8c-5-15.6 2.2-36.9 19.7-60.7 5.4 31.9 14.4 63 27.1 93.1 0.7 1.8 1.5 3.5 2.3 5.2-29.7-10.5-44.9-24.6-49.1-37.6z m677.6 114.5c-65.5 65.5-152.5 101.5-245 101.5-87.3 0-169.7-32.1-233.7-90.7 90.5-3.4 194.5-22.7 299.4-55.9 102.8-32.5 197.2-75.5 272.5-123.6-14.3 63.4-46.2 121.6-93.2 168.7z m166-324.6c-5.5-28.5-14-56.4-25.4-83.4-2.9-7-6.1-13.8-9.4-20.6 31.3 9.5 51.7 23.5 57 40.1 4.3 13.8-0.9 35.9-22.2 63.9z" fill="#73b6ff" p-id="9351"></path><path d="M1013.2 347c-12.7-40.2-46.9-63.2-73.3-75.5-28.3-13.1-63.9-21.8-105.9-25.9-8.4-10.2-17.3-20-26.7-29.4-38.4-38.4-83.2-68.6-133-89.7-51.6-21.8-106.4-32.9-162.9-32.9s-111.3 11.1-162.9 32.9c-49.8 21.1-94.6 51.3-133 89.7-38.4 38.4-68.6 83.2-89.7 133-18 42.5-28.6 87.2-31.9 133.1-91.2 80.5-96 143.3-83.7 182.2 13.2 41.8 49.7 65.3 77.9 77.5 24.8 10.8 54.7 18.3 89.3 22.6 11.6 15.3 24.3 29.9 38 43.6 38.4 38.4 83.2 68.6 133 89.7 51.6 21.8 106.4 32.9 162.9 32.9s111.3-11.1 162.9-32.9c49.8-21.1 94.6-51.3 133-89.7s68.6-83.2 89.7-133c19.7-46.5 30.6-95.5 32.6-146.1 28-24.7 49.7-49.5 64.5-73.8 16.1-26.3 32.4-66.4 19.2-108.3z m-746.9-79.8c65.5-65.5 152.5-101.5 245-101.5 92.6 0 179.6 36 245 101.5 10.8 10.8 20.7 22.1 29.8 34 0.4 0.5 0.8 1.1 1.2 1.6 42.3 55.5 66.7 122.1 70 192.5-74.6 57.6-181.9 110.2-302.2 148.3-109.3 34.6-216.6 53.1-306 53.1-9.5 0-18.7-0.2-27.8-0.6-1.4-0.1-2.8-0.1-4.2-0.2-34.2-54.5-52.5-117.7-52.5-183.6 0.2-92.6 36.2-179.7 101.7-245.1zM78.8 642.8c-5-15.6 2.2-36.9 19.7-60.7 5.4 31.9 14.4 63 27.1 93.1 0.7 1.8 1.5 3.5 2.3 5.2-29.7-10.5-44.9-24.6-49.1-37.6z m677.6 114.5c-65.5 65.5-152.5 101.5-245 101.5-87.3 0-169.7-32.1-233.7-90.7 90.5-3.4 194.5-22.7 299.4-55.9 102.8-32.5 197.2-75.5 272.5-123.6-14.3 63.4-46.2 121.6-93.2 168.7z m166-324.6c-5.5-28.5-14-56.4-25.4-83.4-2.9-7-6.1-13.8-9.4-20.6 31.3 9.5 51.7 23.5 57 40.1 4.3 13.8-0.9 35.9-22.2 63.9z" fill="#73b6ff" p-id="9352"></path></svg>